<svg version="1.1" preserveAspectRatio="none" xmlns="http://www.w3.org/2000/svg" width="500" height="500" viewBox="0 0 500 500"><rect width="100%" height="100%" fill="#0F2D49" fill-opacity="1"/><svg viewBox="284.7758 316.4421 410.214 90" width="333" height="73.05942751831971" x="83.5px" y="213.4703px" xmlns="http://www.w3.org/2000/svg" xmlns:xlink="http://www.w3.org/1999/xlink" preserveAspectRatio="none"><defs></defs><style>.companyName {fill:#CCBF90;fill-opacity:1;}.icon3-str {stroke:#EB63DD;stroke-opacity:1;}.shapeStroke-str {stroke:#CCBF90;stroke-opacity:1;}</style><g opacity="1" transform="rotate(0 305.7758 316.4421)">
<svg width="389.214" height="90" x="305.7758" y="316.4421" version="1.1" preserveAspectRatio="none" viewBox="-0.6 -28.4 125.23999999999998 28.959999999999997">
  <g transform="matrix(1 0 0 1 0 0)" class="companyName"><path id="id-D6z1nYkh5" d="M24.44-3.36Q24.96-2.04 25.64-1.44Q26.32-0.84 26.96-0.80L26.96-0.80L26.96 0Q24.56-0.12 20.88-0.12L20.88-0.12Q16.80-0.12 14.80 0L14.80 0L14.80-0.80Q16.32-0.88 16.96-1.18Q17.60-1.48 17.60-2.24L17.60-2.24Q17.60-2.96 17.12-4.16L17.12-4.16L14.72-10.72L6-10.72L4.96-7.96Q3.84-5.08 3.84-3.52L3.84-3.52Q3.84-2.04 4.74-1.46Q5.64-0.88 7.40-0.80L7.40-0.80L7.40 0Q4.68-0.12 2.44-0.12L2.44-0.12Q0.60-0.12-0.60 0L-0.60 0L-0.60-0.80Q1.36-1.16 2.84-5L2.84-5L11.96-28.40Q12.40-28.36 13.36-28.36L13.36-28.36Q14.32-28.36 14.72-28.40L14.72-28.40L24.44-3.36ZM6.32-11.52L14.44-11.52L10.48-22.32L6.32-11.52Z M53.36-2.20L53.92-1.68Q52.96-0.56 51.76 0Q50.56 0.56 48.76 0.56L48.76 0.56Q46.48 0.56 45.24-0.32Q44-1.20 43.64-2.68L43.64-2.68L42.48-7.40Q42.04-9.64 41.14-10.38Q40.24-11.12 38.48-11.12L38.48-11.12L37.16-11.12L37.16-4.24Q37.16-2.72 37.38-2.04Q37.60-1.36 38.22-1.12Q38.84-0.88 40.16-0.80L40.16-0.80L40.16 0Q37.88-0.12 33.64-0.12L33.64-0.12Q29.92-0.12 28.04 0L28.04 0L28.04-0.80Q29.40-0.88 30-1.12Q30.60-1.36 30.82-2.04Q31.04-2.72 31.04-4.24L31.04-4.24L31.04-20.08Q31.04-21.60 30.82-22.28Q30.60-22.96 30-23.20Q29.40-23.44 28.04-23.52L28.04-23.52L28.04-24.32Q29.92-24.20 33.40-24.20L33.40-24.20L37.96-24.24Q38.76-24.28 39.76-24.28L39.76-24.28Q45.12-24.28 47.78-22.66Q50.44-21.04 50.44-18.16L50.44-18.16Q50.44-15.68 48.32-13.80Q46.20-11.92 41.24-11.40L41.24-11.40Q41.80-11.40 42.40-11.28L42.40-11.28Q45.28-10.96 46.94-10Q48.60-9.04 49.12-6.96L49.12-6.96L49.96-3.40Q50.24-2.28 50.64-1.80Q51.04-1.32 51.64-1.32L51.64-1.32Q52.48-1.32 53.36-2.20L53.36-2.20ZM39.24-23.52Q38.36-23.52 37.92-23.24Q37.48-22.96 37.32-22.24Q37.16-21.52 37.16-20.08L37.16-20.08L37.16-11.92L38.88-11.92Q41.84-11.92 42.94-13.44Q44.04-14.96 44.04-17.72L44.04-17.72Q44.04-20.64 42.94-22.08Q41.84-23.52 39.24-23.52L39.24-23.52Z M73.36-24.20Q75.36-24.20 76.44-24.32L76.44-24.32L76.44-23.52Q75.64-23.16 74.82-22.18Q74-21.20 72.88-19.24L72.88-19.24L68.32-10.84L68.32-4.48Q68.32-2.88 68.60-2.14Q68.88-1.40 69.64-1.14Q70.40-0.88 72.04-0.80L72.04-0.80L72.04 0Q69.96-0.12 65.16-0.12L65.16-0.12Q60.28-0.12 58.48 0L58.48 0L58.48-0.80Q60.12-0.88 60.88-1.14Q61.64-1.40 61.92-2.14Q62.20-2.88 62.20-4.48L62.20-4.48L62.20-8.80L55.04-21.24Q54.36-22.40 53.84-22.88Q53.32-23.36 52.72-23.48L52.72-23.48L52.72-24.32Q55.20-24.12 57.44-24.12L57.44-24.12Q60.60-24.12 64.48-24.32L64.48-24.32L64.48-23.48Q63.28-23.48 62.60-23.26Q61.92-23.04 61.92-22.40L61.92-22.40Q61.92-21.88 62.36-21.16L62.36-21.16L67.80-11.68L70.36-16.36Q71.88-19.16 71.88-20.96L71.88-20.96Q71.88-23.40 68.88-23.52L68.88-23.52L68.88-24.32Q71.32-24.20 73.36-24.20L73.36-24.20Z M96-3.36Q97.16-0.88 98.52-0.80L98.52-0.80L98.52 0Q96.60-0.12 93.28-0.12L93.28-0.12Q89-0.12 86.96 0L86.96 0L86.96-0.80Q88.28-0.88 88.92-1.22Q89.56-1.56 89.56-2.36L89.56-2.36Q89.56-3.08 89.04-4.16L89.04-4.16L87.04-8.72L78.64-8.72L78.16-7.64Q77.04-5 77.04-3.52L77.04-3.52Q77.04-2.16 77.92-1.52Q78.80-0.88 80.52-0.80L80.52-0.80L80.52 0Q78.24-0.12 75.92-0.12L75.92-0.12Q73.76-0.12 72.68 0L72.68 0L72.68-0.80Q73.64-1 74.46-2.02Q75.28-3.04 76.20-5.08L76.20-5.08L84.64-24.40Q84.96-24.36 85.56-24.36L85.56-24.36Q86.20-24.36 86.48-24.40L86.48-24.40L96-3.36ZM79-9.52L86.68-9.52L82.84-18.28L79-9.52Z M124.64-24.32L124.64-23.52Q123.32-23.32 122.70-22.92Q122.08-22.52 121.86-21.64Q121.64-20.76 121.64-18.96L121.64-18.96L121.64 0.08L120.56 0.04L119.52 0.08L103.52-19.80L103.52-5.36Q103.52-3.60 103.84-2.70Q104.16-1.80 105-1.40Q105.84-1 107.64-0.80L107.64-0.80L107.64 0Q105.84-0.12 103.08-0.12L103.08-0.12Q100.88-0.12 99.60 0L99.60 0L99.60-0.80Q100.92-1 101.54-1.40Q102.16-1.80 102.38-2.68Q102.60-3.56 102.60-5.36L102.60-5.36L102.60-20.08Q102.60-21.60 102.38-22.28Q102.16-22.96 101.54-23.20Q100.92-23.44 99.60-23.52L99.60-23.52L99.60-24.32Q100.88-24.20 103.08-24.20L103.08-24.20Q105.92-24.20 107.96-24.32L107.96-24.32L120.72-8.48L120.72-18.96Q120.72-20.72 120.40-21.62Q120.08-22.52 119.22-22.92Q118.36-23.32 116.60-23.52L116.60-23.52L116.60-24.32Q118.36-24.20 121.16-24.20L121.16-24.20Q123.40-24.20 124.64-24.32L124.64-24.32Z"/></g>
</svg>
</g><g opacity="1" transform="rotate(0 284.7758 316.4421)">
<svg width="3" height="90" x="284.7758" y="316.4421" version="1.1" preserveAspectRatio="none" viewBox="0 0 3 90">
  <defs><rect x="0" y="0" width="3" height="90" rx="0px" ry="0px" id="id-tBXipXk0b1690644868462"></rect></defs><use class="companyName shapeStroke-str" style="stroke-width:0;" xlink:href="#id-tBXipXk0b1690644868462"></use>
</svg>
</g></svg></svg>