<svg version="1.1" preserveAspectRatio="none" xmlns="http://www.w3.org/2000/svg" width="500" height="500" viewBox="0 0 500 500"><rect width="100%" height="100%" fill="#161616" fill-opacity="1"/><svg viewBox="-33.6597 158.194 362.3956 70" width="333" height="64.32197300408724" x="83.5px" y="217.839px" xmlns="http://www.w3.org/2000/svg" xmlns:xlink="http://www.w3.org/1999/xlink" preserveAspectRatio="none"><defs></defs><style>.companyName {fill:#F3F0ED;fill-opacity:1;}.icon3-str {stroke:#ED4545;stroke-opacity:1;}</style><g opacity="1" transform="rotate(0 -33.6597 158.194)">
<svg width="362.3956" height="70" x="-33.6597" y="158.194" version="1.1" preserveAspectRatio="none" viewBox="-0.36 -28 144.96 28">
  <g transform="matrix(1 0 0 1 0 0)" class="companyName"><path id="id-D6z1nYkh5" d="M24.24 0L21.76-6L8.76-6L6.28 0L-0.36 0L12.12-28L18.52-28L31.04 0L24.24 0ZM10.84-10.92L19.72-10.92L15.28-21.64L10.84-10.92Z M58.76 0L51.80 0L46.40-7.80L46.08-7.80L40.44-7.80L40.44 0L33.96 0L33.96-28L46.08-28Q49.80-28 52.54-26.76Q55.28-25.52 56.76-23.24Q58.24-20.96 58.24-17.84L58.24-17.84Q58.24-14.72 56.74-12.46Q55.24-10.20 52.48-9L52.48-9L58.76 0ZM51.68-17.84Q51.68-20.20 50.16-21.46Q48.64-22.72 45.72-22.72L45.72-22.72L40.44-22.72L40.44-12.96L45.72-12.96Q48.64-12.96 50.16-14.24Q51.68-15.52 51.68-17.84L51.68-17.84Z M87.28-28L76.40-9.92L76.40 0L69.92 0L69.92-10L59.08-28L65.96-28L73.44-15.56L80.92-28L87.28-28Z M109.20 0L106.72-6L93.72-6L91.24 0L84.60 0L97.08-28L103.48-28L116 0L109.20 0ZM95.80-10.92L104.68-10.92L100.24-21.64L95.80-10.92Z M138.20-28L144.60-28L144.60 0L139.28 0L125.32-17L125.32 0L118.92 0L118.92-28L124.28-28L138.20-11L138.20-28Z"/></g>
</svg>
</g></svg></svg>